<?xml version="1.0" encoding="utf-8"?>
<!-- Generator: Adobe Illustrator 23.0.1, SVG Export Plug-In . SVG Version: 6.00 Build 0)  -->
<svg version="1.1" id="Capa_1" xmlns="http://www.w3.org/2000/svg" xmlns:xlink="http://www.w3.org/1999/xlink" x="0px" y="0px"
	 viewBox="0 0 512 512" style="enable-background:new 0 0 512 512;" xml:space="preserve">
<style type="text/css">
	.st0{fill:#333333;}
	.st1{fill:#FFFFFF;}
	.st2{fill:#C0C2C1;}
	.st3{fill:#E6E6E6;}
	.st4{fill:#000100;}
	.st5{fill:#FE9A0F;}
	.st6{fill:#E2810C;}
	.st7{fill:#DD7F10;}
	.st8{fill:#AE4E32;}
	.st9{fill:#9E402B;}
	.st10{fill:#FE9B0E;}
</style>
<path class="st0" d="M384.3,212.4c-28.2-25.3-40.1-63.7-34.3-101.2c0.8-5.3,1.1-10.7,0.9-16.3c-2-41.8-36.4-75.7-78.3-76.9
	c-45.7-1.3-83.2,35.3-83.2,80.8c0,6.8,0.8,13.4,2.4,19.7c9.2,36.7,0.1,75.5-25.8,103.1c-26,27.6-42.5,64.8-42.5,105.7
	c0,94.2,36.7,139.6,89.1,153.9c12.1-5.4,29.6-8.8,49-8.8c18.5,0,35.3,3.1,47.2,8c64.7-13,95.4-44.5,116.8-117.3
	C442.7,305,416.2,241,384.3,212.4z"/>
<path d="M384.3,212.4c-28.2-25.3-40.1-63.7-34.3-101.2c0.8-5.3,1.1-10.7,0.9-16.3c-2-41.8-36.4-75.7-78.3-76.9
	c-3.7-0.1-7.4,0.1-11,0.4v453.9c21.6,0,40.7,4.2,52.7,10.6c61.2-9.5,90.5-49.1,111.3-119.9C442.7,305,416.2,241,384.3,212.4z"/>
<path class="st1" d="M157.6,346.4c0-61.4,49.2-203.6,109.9-203.6s109.9,142.9,109.9,203.6s-49.2,109.9-109.9,109.9
	S157.6,407.1,157.6,346.4z"/>
<path class="st2" d="M267.5,142.8c-2,0-4,0.2-6,0.5v312.9c2,0.1,4,0.2,6,0.2c60.7,0,109.9-49.2,109.9-109.9S328.2,142.8,267.5,142.8
	z"/>
<ellipse class="st3" cx="227" cy="111.7" rx="18.1" ry="24.6"/>
<ellipse class="st4" cx="227" cy="117.3" rx="9" ry="15.9"/>
<ellipse class="st3" cx="291.4" cy="111.7" rx="18.1" ry="24.6"/>
<ellipse class="st4" cx="291.4" cy="117.3" rx="9" ry="15.9"/>
<path class="st5" d="M315.7,153.7c5.9,12.6-39.1,36.5-54.8,36.5c-19.6,0-60.4-28.9-54.8-36.5c10.5-14.2,33.3-37.2,52-37.2
	C271.6,116.6,311.7,145.2,315.7,153.7z"/>
<path class="st6" d="M315.7,153.7c-3.7-7.9-38.3-33.1-54.1-36.7v73.2C277.7,189.6,321.5,166.2,315.7,153.7z"/>
<path class="st7" d="M384.2,350.5c8,15.4,19.9,30,35.2,33.4c11.3,2.5,19.8,12.1,21.1,23.6c0.2,1.6,0.4,3.2,0.7,4.8
	c2,10.4,6.4,19.7,12.5,27.5c9.3,11.6,2.6,28.9-12,31.7l-115.2,21.8c-25.1,4.8-44-22.5-30.7-44.3l63.6-99.7
	C365.4,339.9,379.1,340.6,384.2,350.5z"/>
<path class="st8" d="M260.7,183.1c-16.4,0-33.1-8-49.7-23.8l5.6-5.9c16.6,15.8,32.9,23,48.4,21.4c21.4-2.2,34.4-20.6,34.5-20.8
	l6.7,4.6c-0.6,0.9-15.2,21.6-40.3,24.2C264.1,183,262.4,183.1,260.7,183.1z"/>
<path class="st9" d="M265,174.8c-1.2,0.1-2.3,0.2-3.5,0.2v8.1c1.4,0,2.9-0.1,4.3-0.2c25.1-2.6,39.7-23.3,40.3-24.2l-6.7-4.6
	C299.4,154.2,286.5,172.6,265,174.8z"/>
<circle cx="399.9" cy="368.2" r="36.9"/>
<path class="st0" d="M150.5,327.8c0,0,39.4,48.1,67.5,58.9s-13.4,42.3-51.3,18.4C128.8,381.3,150.5,327.8,150.5,327.8z"/>
<path class="st10" d="M129.3,350.5c-8,15.4-19.9,30-35.2,33.4c-11.3,2.5-19.8,12.1-21.1,23.6c-0.2,1.6-0.4,3.2-0.7,4.8
	c-2,10.4-6.4,19.7-12.5,27.5c-9.3,11.6-2.6,28.9,12,31.7l115.2,21.8c25.1,4.8,44-22.5,30.7-44.3l-63.6-99.7
	C148.1,339.9,134.4,340.6,129.3,350.5z"/>
</svg>
