<?xml version="1.0" encoding="UTF-8" standalone="no"?>
<svg
   xmlns:dc="http://purl.org/dc/elements/1.1/"
   xmlns:cc="http://creativecommons.org/ns#"
   xmlns:rdf="http://www.w3.org/1999/02/22-rdf-syntax-ns#"
   xmlns:svg="http://www.w3.org/2000/svg"
   xmlns="http://www.w3.org/2000/svg"
   viewBox="0 0 1074.6667 234.66667"
   height="234.66667"
   width="1074.6667"
   xml:space="preserve"
   id="svg2"
   version="1.1"><metadata
     id="metadata8"><rdf:RDF><cc:Work
         rdf:about=""><dc:format>image/svg+xml</dc:format><dc:type
           rdf:resource="http://purl.org/dc/dcmitype/StillImage" /></cc:Work></rdf:RDF></metadata><defs
     id="defs6"><clipPath
       id="clipPath18"
       clipPathUnits="userSpaceOnUse"><path
         id="path16"
         d="M 0,176 H 806 V 0 H 0 Z" /></clipPath></defs><g
     transform="matrix(1.3333333,0,0,-1.3333333,0,234.66667)"
     id="g10"><g
       id="g12"><g
         clip-path="url(#clipPath18)"
         id="g14"><g
           transform="translate(94.876,146.8682)"
           id="g20"><path
             id="path22"
             style="fill:#009245;fill-opacity:1;fill-rule:nonzero;stroke:none"
             d="m 0,0 c 26.279,-15.615 34.923,-49.578 19.308,-75.856 -5.425,-9.128 -13.065,-16.123 -21.826,-20.718 18.585,0.286 36.591,9.919 46.783,27.07 C 59.88,-43.225 51.235,-9.263 24.957,6.352 7.806,16.543 -12.614,16.396 -29.074,7.762 -19.183,7.915 -9.128,5.424 0,0" /></g><g
           transform="translate(31.6104,66.1406)"
           id="g24"><path
             id="path26"
             style="fill:#009245;fill-opacity:1;fill-rule:nonzero;stroke:none"
             d="m 0,0 c 2.572,-9.063 6.924,-17.414 12.612,-24.686 4.137,-2.983 8.583,-5.559 13.283,-7.677 C 19.146,-24.34 14.029,-14.915 11.107,-4.619 7.096,9.518 6.983,23.83 10.292,37.079 7.978,43.673 6.536,50.676 6.122,57.958 -3.203,40.873 -5.748,20.255 0,0" /></g><g
           transform="translate(45.3789,62.2764)"
           id="g28"><path
             id="path30"
             style="fill:#009245;fill-opacity:1;fill-rule:nonzero;stroke:none"
             d="m 0,0 c 3.336,-11.76 9.656,-22.332 18.038,-30.875 7.947,-2.804 16.491,-4.344 25.397,-4.344 27.512,0 51.618,14.561 65.049,36.391 C 96.865,-5.977 83.19,-10.107 68.547,-10.107 37.032,-10.107 9.983,8.996 -1.666,36.252 -3.911,24.606 -3.473,12.237 0,0" /></g><g
           transform="translate(37.6128,129.3882)"
           id="g32"><path
             id="path34"
             style="fill:#009245;fill-opacity:1;fill-rule:nonzero;stroke:none"
             d="M 0,0 C 0.165,14.306 4.261,27.665 11.264,39.047 -10.566,25.615 -25.128,1.51 -25.128,-26.002 c 0,-21.897 9.235,-41.626 24.006,-55.545 -3.227,5.456 -5.781,11.344 -7.541,17.545 C -15.067,-41.434 -11.535,-18.423 0,0" /></g><g
           transform="translate(66.5786,138.9854)"
           id="g36"><path
             id="path38"
             style="fill:#009245;fill-opacity:1;fill-rule:nonzero;stroke:none"
             d="M 0,0 C 0,0 -18.875,-50.836 31.555,-68.534 50.897,-18.711 0,0 0,0" /></g><g
           transform="translate(238.6631,65.5938)"
           id="g40"><path
             id="path42"
             style="fill:#4d4d4d;fill-opacity:1;fill-rule:nonzero;stroke:none"
             d="m 0,0 c 0,5.144 -1.417,9.293 -4.252,12.443 -2.835,3.15 -6.434,5.749 -10.79,7.797 -4.358,2.047 -9.162,3.883 -14.412,5.512 -5.252,1.627 -10.237,3.49 -14.963,5.592 -4.725,2.099 -8.875,4.75 -12.443,7.954 -3.571,3.202 -5.882,7.428 -6.93,12.679 -0.527,4.514 0.13,8.821 1.969,12.916 1.836,4.095 4.462,7.69 7.875,10.789 3.411,3.096 7.455,5.565 12.128,7.403 4.671,1.836 9.529,2.756 14.569,2.756 5.671,0 10.605,-0.999 14.806,-2.992 4.199,-1.996 7.77,-4.386 10.711,-7.167 C 1.206,72.898 3.49,69.985 5.119,66.94 6.746,63.894 7.718,61.322 8.033,59.223 H -4.095 c -1.996,5.04 -5.146,8.872 -9.45,11.498 -4.307,2.623 -8.875,3.989 -13.704,4.095 -3.255,0.103 -6.511,-0.421 -9.765,-1.575 -3.256,-1.157 -6.118,-2.732 -8.584,-4.725 -2.468,-1.996 -4.359,-4.359 -5.67,-7.088 -1.315,-2.732 -1.654,-5.619 -1.024,-8.663 0.839,-3.677 2.965,-6.591 6.379,-8.742 3.411,-2.153 7.481,-4.07 12.207,-5.749 4.725,-1.681 9.711,-3.362 14.963,-5.04 5.249,-1.681 10.08,-3.859 14.491,-6.537 C 0.158,24.02 3.805,20.579 6.694,16.381 9.581,12.18 11.026,6.719 11.026,0 c 0,-5.041 -1.051,-9.556 -3.151,-13.546 -2.101,-3.992 -4.909,-7.351 -8.426,-10.08 -3.519,-2.732 -7.588,-4.804 -12.207,-6.222 -4.622,-1.417 -9.45,-2.126 -14.491,-2.126 -5.04,0 -9.977,0.893 -14.805,2.678 -4.831,1.784 -9.084,4.277 -12.758,7.481 -3.677,3.202 -6.643,7.061 -8.899,11.577 -2.26,4.513 -3.387,9.502 -3.387,14.963 h 11.026 c 0,-3.571 0.76,-6.93 2.283,-10.08 1.521,-3.15 3.596,-5.882 6.222,-8.191 2.624,-2.31 5.695,-4.149 9.214,-5.513 3.517,-1.365 7.219,-1.995 11.104,-1.89 3.569,0.104 6.982,0.576 10.238,1.418 3.254,0.839 6.143,2.126 8.663,3.859 2.52,1.733 4.541,3.883 6.064,6.458 C -0.763,-6.643 0,-3.571 0,0" /></g><g
           transform="translate(269.0605,76.9341)"
           id="g44"><path
             id="path46"
             style="fill:#4d4d4d;fill-opacity:1;fill-rule:nonzero;stroke:none"
             d="m 0,0 c 0,-4.41 0.839,-8.584 2.52,-12.521 1.678,-3.938 3.989,-7.379 6.93,-10.317 2.939,-2.941 6.379,-5.252 10.317,-6.931 3.938,-1.681 8.111,-2.52 12.522,-2.52 4.41,0 8.584,0.839 12.522,2.52 3.937,1.679 7.376,3.99 10.316,6.931 2.939,2.938 5.25,6.379 6.931,10.317 1.678,3.937 2.52,8.111 2.52,12.521 0,4.41 -0.842,8.584 -2.52,12.522 -1.681,3.937 -3.992,7.375 -6.931,10.316 -2.94,2.939 -6.379,5.25 -10.316,6.931 -3.938,1.678 -8.112,2.52 -12.522,2.52 -4.411,0 -8.584,-0.842 -12.522,-2.52 C 15.829,28.088 12.389,25.777 9.45,22.838 6.509,19.897 4.198,16.459 2.52,12.522 0.839,8.584 0,4.41 0,0 m -11.025,0 c 0,5.985 1.127,11.602 3.386,16.854 2.257,5.249 5.355,9.844 9.293,13.781 3.937,3.938 8.53,7.034 13.782,9.293 5.249,2.257 10.868,3.386 16.853,3.386 5.985,0 11.601,-1.129 16.853,-3.386 5.25,-2.259 9.844,-5.355 13.782,-9.293 3.938,-3.937 7.034,-8.532 9.293,-13.781 C 74.474,11.602 75.603,5.985 75.603,0 c 0,-5.985 -1.129,-11.604 -3.386,-16.853 -2.259,-5.252 -5.355,-9.844 -9.293,-13.782 -3.938,-3.938 -8.532,-7.036 -13.782,-9.293 -5.252,-2.257 -10.868,-3.386 -16.853,-3.386 -5.985,0 -11.604,1.129 -16.853,3.386 -5.252,2.257 -9.845,5.355 -13.782,9.293 -3.938,3.938 -7.036,8.53 -9.293,13.782 -2.259,5.249 -3.386,10.868 -3.386,16.853" /></g><g
           transform="translate(373.0122,80.2417)"
           id="g48"><path
             id="path50"
             style="fill:#4d4d4d;fill-opacity:1;fill-rule:nonzero;stroke:none"
             d="M 0,0 V -42.842 H -11.34 V 0 h -8.034 v 11.025 h 8.034 v 35.282 c 0,2.939 0.551,5.695 1.653,8.269 1.103,2.572 2.599,4.804 4.489,6.695 1.89,1.89 4.12,3.386 6.694,4.488 2.572,1.103 5.328,1.654 8.27,1.654 2.938,0 5.694,-0.551 8.269,-1.654 2.571,-1.102 4.828,-2.598 6.772,-4.488 1.942,-1.891 3.465,-4.123 4.568,-6.695 1.103,-2.574 1.654,-5.33 1.654,-8.269 H 20.003 c 0,2.771 -0.999,5.146 -2.992,7.12 -1.996,1.974 -4.359,2.961 -7.088,2.961 -2.732,0 -5.068,-0.975 -7.009,-2.924 C 0.97,51.515 0,49.169 0,46.43 V 11.025 H 20.318 V 0 Z" /></g><g
           transform="translate(407.9766,105.1279)"
           id="g52"><path
             id="path54"
             style="fill:#4d4d4d;fill-opacity:1;fill-rule:nonzero;stroke:none"
             d="M 0,0 V 11.025 H 8.033 V 42.527 H 19.059 V 11.025 H 39.692 V 0 H 19.059 V -67.728 H 8.033 L 8.033,0 Z" /></g><g
           transform="translate(530.2002,37.3999)"
           id="g56"><path
             id="path58"
             style="fill:#4d4d4d;fill-opacity:1;fill-rule:nonzero;stroke:none"
             d="M 0,0 H -13.86 L -55.6,50.717 -62.215,42.842 V 0 h -11.026 v 110.255 h 11.026 v -49.93 l 41.11,49.93 h 15.12 L -48.354,59.38 Z" /></g><g
           transform="translate(590.6826,99.7725)"
           id="g60"><path
             id="path62"
             style="fill:#4d4d4d;fill-opacity:1;fill-rule:nonzero;stroke:none"
             d="m 0,0 c -2.94,2.938 -6.379,5.25 -10.316,6.931 -3.938,1.678 -8.112,2.52 -12.522,2.52 -4.41,0 -8.584,-0.842 -12.522,-2.52 C -39.298,5.25 -42.738,2.938 -45.677,0 c -2.52,-2.52 -4.567,-5.355 -6.142,-8.505 H 5.985 C 4.41,-5.355 2.415,-2.52 0,0 m -55.127,-22.838 c 0,-4.411 0.839,-8.584 2.52,-12.522 1.678,-3.938 3.99,-7.378 6.93,-10.317 2.939,-2.941 6.379,-5.252 10.317,-6.93 3.938,-1.681 8.112,-2.52 12.522,-2.52 4.41,0 8.584,0.839 12.522,2.52 3.937,1.678 7.376,3.989 10.316,6.93 2.1,2.099 3.884,4.514 5.355,7.245 h 12.128 l -0.472,-1.259 c -2.205,-5.252 -5.277,-9.845 -9.214,-13.783 -3.938,-3.937 -8.532,-7.036 -13.782,-9.292 -5.251,-2.257 -10.868,-3.387 -16.853,-3.387 -5.985,0 -11.604,1.13 -16.853,3.387 -5.252,2.256 -9.844,5.355 -13.783,9.292 -3.937,3.938 -7.036,8.531 -9.293,13.783 -2.258,5.249 -3.385,10.867 -3.385,16.853 0,5.985 1.127,11.601 3.385,16.853 2.257,5.249 5.356,9.844 9.293,13.782 3.939,3.937 8.531,7.034 13.783,9.293 5.249,2.257 10.868,3.386 16.853,3.386 5.985,0 11.602,-1.129 16.853,-3.386 5.25,-2.259 9.844,-5.356 13.782,-9.293 3.937,-3.938 7.009,-8.533 9.214,-13.782 1.89,-4.307 2.993,-8.821 3.307,-13.546 H -54.97 c -0.105,-1.156 -0.157,-2.259 -0.157,-3.307" /></g><g
           transform="translate(684.8701,99.7725)"
           id="g64"><path
             id="path66"
             style="fill:#4d4d4d;fill-opacity:1;fill-rule:nonzero;stroke:none"
             d="m 0,0 c -2.94,2.938 -6.379,5.25 -10.316,6.931 -3.938,1.678 -8.112,2.52 -12.522,2.52 -4.41,0 -8.584,-0.842 -12.522,-2.52 C -39.298,5.25 -42.738,2.938 -45.677,0 c -2.52,-2.52 -4.567,-5.355 -6.142,-8.505 H 5.985 C 4.41,-5.355 2.415,-2.52 0,0 m -55.127,-22.838 c 0,-4.411 0.839,-8.584 2.52,-12.522 1.678,-3.938 3.99,-7.378 6.93,-10.317 2.939,-2.941 6.379,-5.252 10.317,-6.93 3.938,-1.681 8.112,-2.52 12.522,-2.52 4.41,0 8.584,0.839 12.522,2.52 3.937,1.678 7.376,3.989 10.316,6.93 2.1,2.099 3.884,4.514 5.355,7.245 h 12.128 l -0.472,-1.259 c -2.205,-5.252 -5.277,-9.845 -9.214,-13.783 -3.938,-3.937 -8.532,-7.036 -13.782,-9.292 -5.251,-2.257 -10.868,-3.387 -16.853,-3.387 -5.985,0 -11.604,1.13 -16.853,3.387 -5.252,2.256 -9.844,5.355 -13.783,9.292 -3.937,3.938 -7.036,8.531 -9.293,13.783 -2.258,5.249 -3.385,10.867 -3.385,16.853 0,5.985 1.127,11.601 3.385,16.853 2.257,5.249 5.356,9.844 9.293,13.782 3.939,3.937 8.531,7.034 13.783,9.293 5.249,2.257 10.868,3.386 16.853,3.386 5.985,0 11.602,-1.129 16.853,-3.386 5.25,-2.259 9.844,-5.356 13.782,-9.293 3.937,-3.938 7.009,-8.533 9.214,-13.782 1.89,-4.307 2.993,-8.821 3.307,-13.546 H -54.97 c -0.105,-1.156 -0.157,-2.259 -0.157,-3.307" /></g><g
           transform="translate(721.7275,76.7769)"
           id="g68"><path
             id="path70"
             style="fill:#4d4d4d;fill-opacity:1;fill-rule:nonzero;stroke:none"
             d="m 0,0 c 0,-4.41 0.839,-8.584 2.521,-12.522 1.677,-3.937 3.989,-7.378 6.929,-10.317 2.939,-2.941 6.379,-5.252 10.318,-6.93 3.937,-1.681 8.111,-2.52 12.521,-2.52 4.41,0 8.584,0.839 12.522,2.52 3.937,1.678 7.376,3.989 10.317,6.93 2.938,2.939 5.249,6.38 6.93,10.317 1.678,3.938 2.52,8.112 2.52,12.522 0,4.41 -0.842,8.584 -2.52,12.521 -1.681,3.938 -3.992,7.376 -6.93,10.317 -2.941,2.939 -6.38,5.25 -10.317,6.931 -3.938,1.678 -8.112,2.52 -12.522,2.52 -4.41,0 -8.584,-0.842 -12.521,-2.52 C 15.829,28.088 12.389,25.777 9.45,22.838 6.51,19.897 4.198,16.459 2.521,12.521 0.839,8.584 0,4.41 0,0 m -11.025,0 c 0,5.985 1.127,11.601 3.386,16.853 2.257,5.25 5.355,9.844 9.293,13.782 3.938,3.938 8.53,7.033 13.782,9.293 5.25,2.257 10.868,3.386 16.853,3.386 5.985,0 11.602,-1.129 16.854,-3.386 5.249,-2.26 9.843,-5.355 13.781,-9.293 3.937,-3.938 7.034,-8.532 9.293,-13.782 C 74.474,11.601 75.604,5.985 75.604,0 c 0,-5.985 -1.13,-11.604 -3.387,-16.854 -2.259,-5.251 -5.356,-9.844 -9.293,-13.781 -3.938,-3.938 -8.532,-7.036 -13.781,-9.293 -5.252,-2.257 -10.869,-3.386 -16.854,-3.386 -5.985,0 -12.128,1.602 -18.429,4.803 C 7.561,-35.309 2.938,-31.344 0,-26.619 v -44.102 h -11.025 z" /></g></g></g></g></svg>